<?xml version="1.0" encoding="UTF-8"?>
<svg id="Layer_1" data-name="Layer 1" xmlns="http://www.w3.org/2000/svg" xmlns:xlink="http://www.w3.org/1999/xlink" viewBox="0 0 1024 1024">
  <defs>
    <style>
      .cls-1 {
        fill: url(#linear-gradient-5);
      }

      .cls-2 {
        fill: url(#linear-gradient-6);
      }

      .cls-3 {
        fill: url(#linear-gradient-4);
      }

      .cls-4 {
        fill: url(#linear-gradient-3);
      }

      .cls-5 {
        fill: url(#linear-gradient-2);
      }

      .cls-6 {
        fill: url(#linear-gradient);
      }
    </style>
    <linearGradient id="linear-gradient" x1="281.82" y1="83.36" x2="281.82" y2="543.25" gradientUnits="userSpaceOnUse">
      <stop offset="0" stop-color="#a7cf3b"/>
      <stop offset="1" stop-color="#86c440"/>
    </linearGradient>
    <linearGradient id="linear-gradient-2" x1="785.81" y1="457.6" x2="785.81" y2="940.64" gradientUnits="userSpaceOnUse">
      <stop offset="0" stop-color="#86c440"/>
      <stop offset="1" stop-color="#65a443"/>
    </linearGradient>
    <linearGradient id="linear-gradient-3" x1="136.42" y1="496.4" x2="136.42" xlink:href="#linear-gradient-2"/>
    <linearGradient id="linear-gradient-4" x1="802.83" x2="802.83" y2="526.64" xlink:href="#linear-gradient"/>
    <linearGradient id="linear-gradient-5" x1="860.46" y1="246.43" x2="860.46" y2="629.64" xlink:href="#linear-gradient-2"/>
    <linearGradient id="linear-gradient-6" x1="352.5" y1="246.43" x2="352.5" y2="669.24" xlink:href="#linear-gradient-2"/>
  </defs>
  <path class="cls-6" d="M465.99,150.92c-51.25-45.03-124.63-67.56-220.14-67.56H102.31c-45.03,0-81.53,36.5-81.53,81.53s36.5,81.53,81.53,81.53h148.19c201.92,0,314.18,103.12,228.78,296.82,11.45-15.58,21.2-32.21,29.22-49.89,22.9-50.47,34.36-102.88,34.36-157.24,0-78.42-25.63-140.16-76.88-185.2Z"/>
  <path class="cls-5" d="M855.11,629.64l-49.11-95.01c-16.97-32.84-5.67-61.36,4.04-77.03-1.99,2.42-4.03,4.84-6.18,7.23-24.08,26.79-59.02,40.18-104.83,40.18h-31.69s-84.77,0-44.12,74.9l56.63,104.34,114.18,210.38c15.39,28.35,45.06,46.01,77.32,46.01h0c65.91,0,108.42-69.81,78.15-128.37l-94.39-182.63h0Z"/>
  <path class="cls-4" d="M217.89,505.01h-90.24c-77.57,0-93.47,69.84-95.77,82.97L.65,843.37c-6.32,51.7,34.02,97.27,86.1,97.27h0c43.81,0,80.74-32.67,86.09-76.15l24.01-195.24,13.34-108.49c6.86-55.75,48.38-58.33,62.38-64.23.09-.04.17-.08.26-.12-16.16,5.72-34.47,8.61-54.96,8.61Z"/>
  <path class="cls-3" d="M945.96,149.17c-52.03-43.86-126.96-65.81-224.8-65.81h-57.97c-45.03,0-81.53,36.5-81.53,81.53s36.5,81.53,81.53,81.53h68.46c196.07,0,307.58,97.23,235.7,280.2,1.23-1.96,2.47-3.91,3.66-5.9,27.55-46.19,44.44-95.69,50.67-148.51,1.55-20.18,2.33-34.16,2.33-41.93,0-76.88-26.03-137.24-78.04-181.12Z"/>
  <path class="cls-1" d="M967.35,526.64c71.88-182.97-39.64-280.2-235.7-280.2,44.26,0,74.55,11.07,90.85,33.2,16.31,22.13,24.46,47.57,24.46,76.29,0,10.88-.4,18.25-1.16,22.13-3.57,28.46-15.62,55.11-36.11,79.98.12-.14.24-.29.36-.43-9.71,15.67-21.01,44.19-4.04,77.03l49.11,95.01c47.54-25.25,84.94-59.61,112.24-103.01h0Z"/>
  <path class="cls-2" d="M479.28,543.25c85.4-193.7-26.86-296.82-228.78-296.82,44.26,0,74.55,12.05,90.85,36.11,16.31,24.08,24.46,50.09,24.46,78.04,0,19.42-5.06,40.38-15.14,62.9-10.1,22.53-26.21,41.75-48.34,57.66-8.86,6.37-18.7,11.45-29.49,15.27,0,0,0,0,0,0-.09.04-.17.08-.26.12-14.01,5.91-55.53,8.49-62.38,64.23l-13.34,108.49h8.22c77.64,0,141.9-16.69,192.77-50.09,35.27-23.15,63.81-50.42,85.65-81.8-1.38,1.98-2.78,3.94-4.21,5.89Z"/>
</svg>